<svg xmlns="http://www.w3.org/2000/svg" xmlns:xlink="http://www.w3.org/1999/xlink" aria-label="CentOS" role="img" viewBox="0 0 512 512"><rect width="512" height="512" fill="#fff" rx="15%"/><g id="a"><path fill="#9ccd2a" d="M118 118h124v124H118z"/><path fill="#932279" d="M270 118h124v124H270z"/><path fill="#efa724" d="M270 270h124v124H270z"/><path fill="#262577" d="M118 270h124v124H118z"/></g><use transform="rotate(225 256 256)" xlink:href="#a"/><path fill="none" stroke="#fff" stroke-width="9" d="M118 270h124v124H118zm152 0h124v124H270zm0-152h124v124H270zm-152 0h124v124H118zm245 226l-87-88 87-88 88 88zM256 236l-88-87 88-88 88 88zM149 344l-88-88 88-88 87 88zm107 107l-88-88 88-87 88 87z"/></svg>