<svg xmlns="http://www.w3.org/2000/svg" aria-label="coinpot" role="img" viewBox="0 0 512 512"><rect width="512" height="512" fill="#e0e0e0" rx="15%"/><defs><g id="a"><path fill="#ffd54e" d="M0 0h84v13q-42 5-84 0"/><ellipse cx="42" fill="#c6a900" rx="42" ry="3"/></g></defs><g transform="translate(78 255)"><g id="b"><use href="#a"/><use y="18" href="#a"/><use y="36" href="#a"/><use y="54" href="#a"/><use y="72" href="#a"/></g></g><use x="174" y="202" href="#b"/><use x="174" y="256" href="#b"/><use x="269" y="173" href="#b"/><use x="269" y="245" href="#b"/><path fill="#e0e0e0" d="M62 328c90 38 199 4 323-95v150H62"/><path fill="#03a9f3" d="M62 335c90 38 199 4 323-95l-13-10 77-28-17 73-13-11C203 413 132 367 62 335"/></svg>