<svg xmlns="http://www.w3.org/2000/svg" aria-label="Friendica" role="img" viewBox="0 0 512 512"><rect width="512" height="512" fill="#fff" rx="15%"/><defs><linearGradient id="a" x2="0" y2="1"><stop offset="0" stop-color="#fff" stop-opacity=".4"/><stop offset=".3" stop-color="#d6d7e8" stop-opacity="0"/><stop offset=".7" stop-opacity="0"/><stop offset="1" stop-opacity=".4"/></linearGradient></defs><rect width="334" height="334" x="89" y="89" rx="50"/><path d="M144 89c-30 0-55 25-55 55v225c0 30 25 55 55 55h225c30 0 55-25 55-55V144c0-30-25-55-55-55z"/><path fill="#ffc019" d="M144 102c-23 0-42 18-42 42v225c0 23 18 42 42 42h52v-88h108v-67H196v-81h107.547v-73z"/><path fill="#1872a2" d="M316 102v87H209v67h107v81H209v74h160c23 0 42-18 41-42V144c0-23-18-42-42-42z"/><rect width="334" height="334" x="89" y="89" fill="url(#a)" rx="50"/></svg>