<svg xmlns="http://www.w3.org/2000/svg" aria-label="Kaggle" role="img" viewBox="0 0 512 512"><rect width="512" height="512" fill="#fff" rx="15%"/><path fill="#20BEFF" d="M363 401.5c-.33 1.65-1.65 2.2-4.4 2.2h-44c-2.75 0-4.95-1.1-7.15-3.3l-72.347-92.246L215 327.277v71.5c0 3.3-1.65 4.95-4.95 4.95h-33.836c-3.3 0-4.95-1.65-4.95-4.95V77c0-3.3 1.65-4.95 4.95-4.95h33.55c3.3 0 4.95 1.65 4.95 4.95v198l86.306-87.285c2.288-2.283 4.576-3.432 6.864-3.432h45.122c1.958 0 3.262.82 3.922 2.447.654 2.2.55 3.3-.55 4.4L264 280.5c99 115.5 99 121 99 121"/></svg>