<svg xmlns="http://www.w3.org/2000/svg" fill="none" aria-label="OpenBenches" role="img" viewBox="0 0 512 512"><rect width="512" height="512" rx="15%"/><circle cx="256" cy="256" r="250" fill="#11b0a3"/><path fill="#8c5015" d="M9 319a258 258 0 00495 0"/><g stroke="#000" stroke-width="12"><path fill="#fb0" stroke="#fff" stroke-width="24" d="M110 228h139v37H110z"/><g fill="#007200"><path d="M503 318H389c12-35 41-15 41-15 7-27 38-27 38-27 2-30 24-39 37-37"/><circle cx="365" cy="174" r="64"/></g><path d="M65 276h234m-187-2v44m135-43v42m20-41v-61H91v61m274-106v148m-35-148l36 35m37-33l-39 39M133 108s33-3 39 16c-8-31 14-40 14-40m13 44s26 21 16 39c14-28 36-19 36-19M49 401l436-40M82 438l99-19m-63 48l189-53m-149 74l302-86M9 319h493"/><circle cx="256" cy="256" r="250"/></g></svg>